# xmcd CD database file
#
# Track frame offsets:
#	150
#	17338
#	36801
#	54458
#	67504
#	78003
#	93868
#	107662
#	125973
#	138921
#	153484
#	167732
#	183530
#	194110
#
# Disc length: 2759 seconds
#
# Revision: 2
# Processed by: cddbd v1.4b41PL1 Copyright (c) Steve Scherf et al.
# Submitted via: Feurio! 1.50.2ß - http://www.feurio.com
#
DISCID=b00ac50e
DTITLE=Dr. Hook&The Medicine Show - Sylvia´s Mother
DYEAR=1900
DGENRE=
TTITLE0=Sylvia´s Mother
TTITLE1=Carry Me Carrie
TTITLE2=Ballad Of Lucy Jordan
TTITLE3=Cover Of The Rolling Stone
TTITLE4=Hey Lady Godiva
TTITLE5=I Can´t Touch The Sun
TTITLE6=Life Ain´t Easy
TTITLE7=Kiss It Away
TTITLE8=Makin´ It Natural
TTITLE9=Put A Little Bit On Me
TTITLE10=Turn On The World
TTITLE11=You Ain´t Got The Right
TTITLE12=Acapulco Goldie
TTITLE13=Penicilin Penny
EXTD=
EXTT0=
EXTT1=
EXTT2=
EXTT3=
EXTT4=
EXTT5=
EXTT6=
EXTT7=
EXTT8=
EXTT9=
EXTT10=
EXTT11=
EXTT12=
EXTT13=
PLAYORDER=
